Coordinates
version=1
nRows=27
nColumns=33
inDegrees=yes

Units are S.I. units (second, meters, Newtons, ...)
Angles are in degrees.

endheader
time	ground_thorax_rot_x	ground_thorax_rot_y	ground_thorax_rot_z	ground_thorax_tx	ground_thorax_ty	ground_thorax_tz	clav_prot_r	clav_elev_r	scapula_abduction_r	scapula_elevation_r	scapula_upward_rot_r	scapula_winging_r	shoulder_elv_r	plane_of_elev_r	axial_rot_r	elbow_flexion_r	pro_sup_r	wrist_flex_r	wrist_dev_r	clav_prot_l	clav_elev_l	scapula_abduction_l	scapula_elevation_l	scapula_upward_rot_l	scapula_winging_l	shoulder_elv_l	plane_of_elev_l	axial_rot_l	elbow_flexion_l	pro_sup_l	wrist_flex_l	wrist_dev_l	
1.3300	4.644922	-8.016944	10.025035	-0.110907	1.037152	0.010187	13.410724	-4.830304	26.046383	-0.752285	5.962914	-9.419201	46.981321	26.504197	-0.549842	50.072873	43.331182	2.955104	10.743914	4.535266	-11.652106	-5.437207	1.352838	-10.210996	-2.546069	46.538477	29.435991	-4.472990	62.334590	19.477430	1.267186	-6.255410	
1.3400	4.620079	-7.964965	9.982936	-0.111154	1.037237	0.010241	13.440458	-4.537757	26.142827	-0.540930	6.075369	-9.548027	47.725825	27.224240	-0.127520	50.830363	43.946791	0.966394	8.766295	4.693079	-11.449578	-5.810519	1.299915	-9.890744	-2.316312	46.690068	30.239835	-4.043163	62.889119	19.537483	0.596462	-6.446848	
1.3500	4.545995	-7.827802	9.904224	-0.111363	1.037336	0.010274	13.347709	-4.305104	26.096481	-0.423156	6.300351	-9.596981	48.432343	27.887364	-0.048718	51.519881	44.096888	-0.452206	7.337324	4.944681	-11.217856	-6.356109	1.231019	-9.539660	-2.012184	46.865429	31.075868	-3.569565	63.438936	19.625561	-0.036692	-6.643647	
1.3600	4.412851	-7.591905	9.817110	-0.111546	1.037460	0.010250	13.171088	-4.138137	25.994133	-0.418529	6.674374	-9.604347	49.087965	28.413104	-0.666564	52.148533	43.547421	-0.904379	7.256661	5.299293	-10.945243	-7.088105	1.133004	-9.162438	-1.623574	47.037211	31.943843	-3.087010	63.961560	19.762353	-0.670131	-6.855710	
1.3700	4.217611	-7.281438	9.738416	-0.111651	1.037697	0.010132	12.941145	-4.113824	25.948384	-0.633202	7.295738	-9.602750	49.617117	28.717550	-2.436597	52.627076	42.113428	0.344304	9.143785	5.704738	-10.657529	-7.911574	1.024142	-8.776143	-1.195106	47.190304	32.817687	-2.643724	64.467625	19.932757	-1.267087	-7.074122	
1.3800	4.007918	-6.948422	9.697719	-0.111717	1.038011	0.009980	12.710577	-4.150330	25.968044	-0.941589	8.025920	-9.613480	50.081468	28.876580	-4.694603	53.090833	40.335111	2.246527	12.131507	6.111136	-10.376823	-8.737365	0.921447	-8.392532	-0.767462	47.318293	33.654431	-2.236078	64.971113	20.134763	-1.821585	-7.300345	
1.3900	3.799129	-6.631541	9.714178	-0.111721	1.038442	0.009783	12.502250	-4.297754	26.115106	-1.401284	8.898670	-9.652999	50.429927	28.878040	-7.490440	53.466956	38.344392	5.072155	15.947251	6.462759	-10.125980	-9.456882	0.831494	-8.048018	-0.390827	47.420154	34.446953	-1.887704	65.482237	20.347934	-2.294796	-7.517568	
1.4000	3.626077	-6.375121	9.799089	-0.111732	1.038914	0.009619	12.351837	-4.432586	26.319885	-1.817583	9.690862	-9.718078	50.747246	28.852685	-9.892729	53.972879	37.041986	7.376181	19.035972	6.742828	-9.901172	-10.041331	0.751870	-7.740841	-0.074215	47.508685	35.171346	-1.558231	66.010294	20.582870	-2.721817	-7.737366	
1.4100	3.492108	-6.191846	9.941167	-0.111782	1.039380	0.009502	12.258534	-4.527989	26.557751	-2.152093	10.363412	-9.804832	51.035348	28.863254	-11.683120	54.597397	36.543363	8.849646	20.826140	6.960124	-9.687855	-10.498717	0.661758	-7.487007	0.189257	47.610924	35.854795	-1.207389	66.552508	20.850783	-3.131633	-7.962056	
1.4200	3.409137	-6.074414	10.118801	-0.111882	1.039778	0.009460	12.194819	-4.519448	26.746730	-2.327104	10.862845	-9.892089	51.346942	28.987077	-12.579247	55.387178	36.743977	9.017723	21.147281	7.138100	-9.479966	-10.875617	0.562477	-7.269041	0.419280	47.739918	36.500576	-0.802749	67.114939	21.142989	-3.545444	-8.193521	
1.4300	3.347082	-5.989818	10.313771	-0.112009	1.040135	0.009421	12.131864	-4.482911	26.930263	-2.472197	11.349563	-9.985274	51.623134	29.139992	-13.321365	56.187237	36.935598	9.083003	21.165693	7.301874	-9.263829	-11.216057	0.441985	-7.083114	0.636811	47.890544	37.144968	-0.363372	67.679007	21.449157	-3.964016	-8.423143	
1.4400	3.297921	-5.933258	10.499223	-0.112144	1.040467	0.009388	12.051223	-4.400053	27.075521	-2.571606	11.823477	-10.076487	51.867933	29.321107	-13.993758	57.050505	37.123607	9.157532	21.118926	7.447171	-9.045103	-11.529065	0.324315	-6.886397	0.845372	48.055360	37.766673	0.097147	68.253257	21.745842	-4.378681	-8.649284	
1.4500	3.259446	-5.892813	10.661744	-0.112312	1.040724	0.009358	11.947356	-4.214847	27.174487	-2.581145	12.293848	-10.181594	52.058748	29.549624	-14.614328	57.977625	37.341323	9.213134	20.931657	7.594715	-8.808709	-11.851657	0.198240	-6.672665	1.064702	48.245504	38.387167	0.600044	68.823377	22.063460	-4.814675	-8.882958	
1.4600	3.243077	-5.875036	10.790461	-0.112480	1.040936	0.009342	11.809085	-3.948969	27.211455	-2.520748	12.764407	-10.286946	52.208619	29.843557	-15.151149	58.945293	37.563149	9.244850	20.582269	7.717063	-8.583332	-12.143074	0.096172	-6.429400	1.269931	48.451966	38.983907	1.123165	69.403316	22.360796	-5.236640	-9.108073	
1.4700	3.246508	-5.871018	10.891583	-0.112644	1.041111	0.009335	11.644653	-3.621745	27.200625	-2.406457	13.233454	-10.392218	52.328002	30.186894	-15.629618	59.940884	37.795319	9.255618	20.087823	7.819208	-8.370016	-12.409291	0.015635	-6.164019	1.462451	48.669541	39.561250	1.660846	69.988948	22.642979	-5.647584	-9.325485	
1.4800	3.265132	-5.883784	10.963061	-0.112777	1.041288	0.009335	11.465735	-3.297713	27.164458	-2.292560	13.698478	-10.485190	52.453919	30.554226	-16.060861	60.952212	38.020365	9.270018	19.515253	7.884373	-8.182289	-12.623331	-0.029873	-5.874362	1.627332	48.892289	40.109412	2.191132	70.586082	22.886981	-6.027659	-9.524661	
1.4900	3.280452	-5.891993	11.015068	-0.112900	1.041437	0.009322	11.294745	-2.975973	27.139836	-2.177725	14.157359	-10.581723	52.591456	30.908784	-16.514626	61.985299	38.277898	9.291980	18.899204	7.949535	-7.989839	-12.841737	-0.075481	-5.575092	1.796026	49.129602	40.658186	2.722854	71.177801	23.143045	-6.417145	-9.724364	
1.5000	3.290987	-5.892811	11.061341	-0.113018	1.041551	0.009297	11.148043	-2.662356	27.146589	-2.063175	14.598094	-10.686883	52.752886	31.235325	-17.000508	63.037271	38.606387	9.335010	18.222280	8.021614	-7.787367	-13.072102	-0.130011	-5.275927	1.972481	49.382992	41.204488	3.258081	71.764477	23.422640	-6.826544	-9.925530	
1.5100	3.298842	-5.886171	11.107477	-0.113124	1.041637	0.009265	11.023879	-2.360499	27.181940	-1.951856	15.020334	-10.798568	52.932547	31.533935	-17.513110	64.104812	38.996526	9.398370	17.503724	8.100561	-7.579069	-13.313300	-0.191232	-4.980293	2.154684	49.651278	41.742144	3.795191	72.351289	23.722167	-7.250415	-10.128782	
1.5200	3.301550	-5.873164	11.156053	-0.113225	1.041690	0.009232	10.922438	-2.065084	27.244559	-1.838666	15.422210	-10.918065	53.124515	31.802899	-18.047987	65.193474	39.451806	9.482958	16.751672	8.189601	-7.363566	-13.571073	-0.260287	-4.687870	2.345302	49.942766	42.266389	4.340812	72.939370	24.047024	-7.688579	-10.337455	
1.5300	3.303858	-5.856978	11.206890	-0.113311	1.041727	0.009208	10.829169	-1.780509	27.315460	-1.729612	15.811280	-11.037251	53.312490	32.051175	-18.587054	66.297875	39.927792	9.578383	16.010347	8.281835	-7.154298	-13.835421	-0.324544	-4.397146	2.536421	50.255104	42.767257	4.889950	73.536634	24.380809	-8.120421	-10.550928	
1.5400	3.298480	-5.832785	11.261697	-0.113413	1.041711	0.009189	10.758108	-1.470766	27.412313	-1.593156	16.183210	-11.173852	53.489468	32.267237	-19.151694	67.437878	40.493773	9.689999	15.238618	8.404341	-6.933965	-14.150072	-0.401421	-4.112221	2.750578	50.624195	43.248209	5.479577	74.135343	24.770128	-8.570019	-10.785689	
1.5500	3.296846	-5.818861	11.319161	-0.113500	1.041709	0.009189	10.691798	-1.197294	27.513730	-1.483037	16.543461	-11.299840	53.664217	32.458515	-19.692070	68.587543	41.058567	9.821518	14.527648	8.517513	-6.740974	-14.452513	-0.452392	-3.825506	2.951368	51.027569	43.679128	6.079062	74.755509	25.146962	-8.979677	-11.019761	
1.5600	3.295513	-5.812965	11.375038	-0.113575	1.041703	0.009208	10.630313	-0.940595	27.619666	-1.383761	16.894695	-11.421138	53.829830	32.625272	-20.210779	69.754262	41.636136	9.966100	13.847776	8.628600	-6.566825	-14.755017	-0.484826	-3.536098	3.146358	51.479588	44.064601	6.698074	75.397499	25.520056	-9.354512	-11.256298	
1.5700	3.297922	-5.821061	11.421923	-0.113615	1.041728	0.009252	10.556851	-0.729607	27.708735	-1.321947	17.244200	-11.520621	53.985954	32.778933	-20.681012	70.918196	42.160866	10.107482	13.218982	8.710376	-6.428146	-15.015240	-0.480337	-3.236157	3.314174	51.959525	44.396766	7.302372	76.072432	25.839751	-9.663085	-11.478556	
1.5800	3.300198	-5.816353	11.467612	-0.113688	1.041699	0.009310	10.494541	-0.466322	27.811680	-1.215171	17.591809	-11.640202	54.104879	32.901779	-21.151648	72.108717	42.775855	10.232078	12.491647	8.831905	-6.285074	-15.336170	-0.488770	-2.956875	3.506557	52.525296	44.702498	7.968519	76.767406	26.193969	-9.959772	-11.715107	
1.5900	3.313348	-5.809969	11.516099	-0.113778	1.041682	0.009381	10.424698	-0.215504	27.897651	-1.115602	17.930842	-11.748393	54.202227	33.008308	-21.562791	73.290728	43.417725	10.308203	11.679430	8.951497	-6.162580	-15.647038	-0.487723	-2.698843	3.687216	53.115785	44.972591	8.641916	77.497498	26.509971	-10.207998	-11.941103	
